<svg id="Layer_1" data-name="Layer 1" xmlns="http://www.w3.org/2000/svg" viewBox="0 0 600 600"><defs><style>.cls-1{fill:none;}.cls-2{fill:#6331ff;}.cls-3{fill:#fff;}</style></defs><rect class="cls-1" width="600" height="600"/><circle class="cls-2" cx="300" cy="302.13" r="247.3"/><path class="cls-3" d="M232.67,330.2c-1.84.68-3.72,1.32-5.66,1.88s-3.95,1.09-6,1.54c-1.83.46-3.54,1-5.14,1.54a15.25,15.25,0,0,1-5.15.86,12.11,12.11,0,0,1-7.2-3.6,11.28,11.28,0,0,1-3.09-7,12.18,12.18,0,0,1,2.4-7.88,15.68,15.68,0,0,1,6.52-5.82q7.89-3.07,15.44-6.33t15.43-6.33a5.84,5.84,0,0,0,3.43-2.23,17.74,17.74,0,0,0,1.72-3.25q4.11-14.4,8.23-28.3t8.58-28.3q2.73-9.6,5.65-19t6-18.7a17.59,17.59,0,0,1,3.08-6,9.3,9.3,0,0,1,5.84-3.26q6.51-1.71,10.8,2.75t2.57,11.32c-.91,3.2-1.83,6.29-2.74,9.26s-1.95,6.06-3.09,9.26l-16.46,53.51a12.24,12.24,0,0,0-.86,3.26,18.39,18.39,0,0,1-.86,3.6,40.94,40.94,0,0,1,5.32-2.23,27.91,27.91,0,0,0,5-2.23q7.22-4.46,14.58-8.75t14.24-9.09q7.88-5.15,15.09-10.46T340.72,239a88.19,88.19,0,0,0,13.71-14.92A55.22,55.22,0,0,0,363,205.76,33.67,33.67,0,0,0,359.58,180a30.84,30.84,0,0,0-18.86-14.75q-4.82-1.71-9.78-3.08a51.12,51.12,0,0,0-10.12-1.72A67.74,67.74,0,0,0,290,165.63a125.78,125.78,0,0,0-17,8.74,104.09,104.09,0,0,0-15.26,11.5q-11,9.6-21.1,19.89a76.69,76.69,0,0,0-16,24,45.15,45.15,0,0,0-2.74,7.89c-.69,2.74-1.38,5.49-2.06,8.23-.46,1.83-1,3.6-1.54,5.32a9.4,9.4,0,0,1-2.92,4.29,13.19,13.19,0,0,1-5.66,3.08,9.24,9.24,0,0,1-6.35-1q-6.85-3.08-6.51-9.94a48,48,0,0,1,1-9.78,71.26,71.26,0,0,1,2.74-9.77,99,99,0,0,1,11.83-23,160.75,160.75,0,0,1,16.3-19.89A227.24,227.24,0,0,1,251,162a139.4,139.4,0,0,1,30.35-17.33A110.45,110.45,0,0,1,305.73,138a65.91,65.91,0,0,1,25.38,1.2q5.49,1.36,10.81,2.74A71.62,71.62,0,0,1,352,145.39a53.34,53.34,0,0,1,17.66,11.32,57.92,57.92,0,0,1,11.66,15.95,55.47,55.47,0,0,1,5.32,19A57.3,57.3,0,0,1,385,212.28a75.59,75.59,0,0,1-15.09,29.15,143.84,143.84,0,0,1-19.21,19q-10.29,8.41-21.61,15.95-5.83,3.78-11.49,7.55t-12.18,7.89l2.06.51a5.38,5.38,0,0,0,1.38.17q4.79-.33,9.09-.68t9.08-.35q3.78,0,7.21.17t7.2.52q11.33,1,22.47,3.08a106.55,106.55,0,0,1,21.78,6.5,82.42,82.42,0,0,1,20.58,13,44.52,44.52,0,0,1,12.86,16.09,76.14,76.14,0,0,1,6,19.52q4.8,26.36-11.67,48.27a141.12,141.12,0,0,1-19.55,21.39,183.93,183.93,0,0,1-23,17.28,200.56,200.56,0,0,1-26.75,14.21,181.51,181.51,0,0,1-28.82,9.76q-6.51,1.71-13,2.74t-13.38,1.71q-6.87.69-13.89,1t-13.89,0a132.75,132.75,0,0,1-28-2.91,112.1,112.1,0,0,1-26.58-9.41,72.34,72.34,0,0,1-16.47-10.78,48.63,48.63,0,0,1-11.66-15.58q-7.89-16.44-2.4-33.21a56.79,56.79,0,0,1,14.75-23.79,102.61,102.61,0,0,1,23-16.26,15.1,15.1,0,0,1,3.09-1.71q8.91-2.4,12-8.56a39.15,39.15,0,0,0,3.78-14.38h0Zm12,41.58q-1.72,5.84-3.43,11.32t-3.43,11.31q-2.06,6.18-7.55,8.07A10.36,10.36,0,0,1,220,400.59a10.62,10.62,0,0,1-4.11-6,18.06,18.06,0,0,1,0-7c.45-1.38.91-2.75,1.37-4.12s1-3,1.72-4.8a31.4,31.4,0,0,0-10.64,7,53.1,53.1,0,0,0-7.2,9.43q-5.15,7.89-4.8,14.58t6.17,13.89a29.33,29.33,0,0,0,7.89,7.2,71.91,71.91,0,0,0,9.26,4.81,79,79,0,0,0,20.92,6.51,167.68,167.68,0,0,0,21.62,2.06,92.76,92.76,0,0,0,11.31,0q5.49-.34,11.32-1a134.78,134.78,0,0,0,19.38-2.74q9.44-2.06,18.7-4.8a115.57,115.57,0,0,0,19.89-8.06,171.69,171.69,0,0,0,18.53-11.15,130.58,130.58,0,0,0,31.21-27.78q9.25-11,10.46-23t-4.63-24.69a27.11,27.11,0,0,0-9.95-12.18,67.2,67.2,0,0,0-14.06-7,79.58,79.58,0,0,0-19-5.15q-9.78-1.37-19.72-2.06a211.91,211.91,0,0,0-36.19,1,323.06,323.06,0,0,0-35.5,6.18c-2.29.46-3.77,1.26-4.46,2.4"/></svg>