<?xml version="1.0" encoding="utf-8"?>
<!-- Generator: Adobe Illustrator 27.3.1, SVG Export Plug-In . SVG Version: 6.00 Build 0)  -->
<svg version="1.1" id="Layer_1" xmlns="http://www.w3.org/2000/svg" xmlns:xlink="http://www.w3.org/1999/xlink" x="0px" y="0px"
	 viewBox="0 0 530 530" style="enable-background:new 0 0 530 530;" xml:space="preserve">
<style type="text/css">
	.st0{fill:url(#SVGID_1_);}
	.st1{fill:#8362F4;}
	.st2{fill:#FEFEFE;}
	.st3{fill:url(#SVGID_00000129919772657418419250000012493250881407269289_);}
	.st4{fill:url(#SVGID_00000073711425700564039350000010976265849996982427_);}
	.st5{fill:url(#SVGID_00000179616359670803735470000004614429164254416542_);}
	.st6{fill:url(#SVGID_00000069365153445893255330000015553469951341049512_);}
	.st7{fill:url(#SVGID_00000138561185250633496060000010072778998171974070_);}
	.st8{fill:url(#SVGID_00000143600154066451858090000006371546306153185210_);}
	.st9{fill:url(#SVGID_00000133531392321148039100000014699180364584221824_);}
	.st10{fill:#1082F3;}
</style>
<linearGradient id="SVGID_1_" gradientUnits="userSpaceOnUse" x1="496.0178" y1="41.9484" x2="-25.9822" y2="545.9484">
	<stop  offset="0" style="stop-color:#7700B6"/>
	<stop  offset="2.207947e-02" style="stop-color:#7300B1"/>
	<stop  offset="0.2594" style="stop-color:#4A007F"/>
	<stop  offset="0.4834" style="stop-color:#2A0058"/>
	<stop  offset="0.6881" style="stop-color:#13003C"/>
	<stop  offset="0.8669" style="stop-color:#05002B"/>
	<stop  offset="1" style="stop-color:#000025"/>
</linearGradient>
<rect class="st0" width="530" height="530"/>
<g>
	<path class="st1" d="M341.5,107.8c35,0.1,68,11.4,96.7,34.5c30,24.2,48.5,55.6,55.9,93.4c1.7,8.6,2.3,17.4,2.5,26.2
		c0,1.2,0,2.5-0.1,3.7c-0.1,1-0.8,1.5-1.7,1.6c-1,0.1-2.1,0.1-3.2,0.1c-5.8,0-11.6,0-17.4,0c-0.7,0-1.4,0-2.1,0
		c-2-0.1-2.5-0.5-2.7-2.4c-0.1-1.8-0.1-3.5-0.2-5.3c-0.6-22.1-6.8-42.5-18.1-61.5c-13.9-23.4-33.4-40.6-58.1-51.8
		c-23.3-10.6-47.6-14.3-73-10.1c-13.1,2.2-25.7,5.8-37.6,11.7c-23.3,11.6-41.6,28.5-54.9,50.8c-8.9,14.8-14.3,30.8-17.1,47.8
		c-0.8,4.7-0.9,9.4-1,14.2c0,1.6-0.1,3.2-0.2,4.7c-0.1,1-0.8,1.5-1.8,1.7c-0.2,0-0.4,0-0.5,0c-7.4,0-14.8,0-22.1-0.1
		c-2.3,0-2.7-0.5-2.7-2.9c0-13.2,1.4-26.3,4.8-39.1c6.2-23.1,17.2-43.7,32.6-62c11.3-13.5,24.7-24.5,39.7-33.5
		c18.3-11,38.2-17.6,59.4-20.4C325.6,108.3,332.6,108.1,341.5,107.8z"/>
	<path class="st2" d="M285.8,264.4c0.2-17,0.5-33.3,0.7-49.7c0-2.3,0.5-4.5,1.6-6.6c3.1-5.5,8.9-7.7,14.9-5.6
		c1.8,0.6,3.5,1.6,5.2,2.5c19.2,10.9,38.4,21.9,57.6,32.9c8.4,4.8,16.7,9.6,25.1,14.5c0.9,0.5,1.8,1,2.7,1.7
		c7.4,5.6,7.1,16.3-0.5,21.5c-0.7,0.5-1.5,0.9-2.3,1.3c-16.3,9.3-32.7,18.5-49,27.8c-11.1,6.3-22.2,12.7-33.4,19.1
		c-1.5,0.9-3.1,1.7-4.7,2.4c-8.6,3.5-15.9-2.9-17-9.8c-0.3-1.7-0.3-3.5-0.3-5.3C286.2,295.4,286,279.6,285.8,264.4z"/>
	<path class="st2" d="M492.1,291.6c-7.7,0-15.5-0.1-23.2-0.1c-0.3,0-0.7,0-1,0c-0.7,0.1-1.3,0.5-1.5,1.3c-0.2,0.7-0.3,1.4-0.5,2.1
		c-10.4,40.5-34.3,70.2-72.1,88.2c-16.1,7.7-33.3,11.8-51.4,12.1c-15.6,0.3-30.7-2.2-45.6-7c-20.7-6.8-38.1-18.4-53-34.1
		c-0.8-0.8-5.1-6.5-6.1-7.9c-5.5-7.5-10.5-15.3-14.5-23.8c-4.3-9-8-18.3-10.4-28.1c-0.7-2.7-0.9-2.9-3.5-2.9
		c-7.5,0-15.1,0.1-22.6,0.3c-2.3,0-2.7,0.6-2.3,3c0.6,3.3,1.4,6.5,2.2,9.7c5.3,19.1,13.8,36.7,25.4,52.8
		c5.6,7.8,11.9,15.2,19.2,21.5c1.7,1.7,3.4,3.5,5.3,5.1c14.2,12.3,30.2,21.6,47.9,28.1c10.3,3.8,20.8,6.4,31.5,8.3l0.2-0.2l0.2,0.3
		c2.1,0.3,4.1,0.7,6.2,0.9c10.5,1.1,20.9,1.3,31.4,0.1l0.2-0.3l0.2,0.2c2.3-0.3,4.5-0.6,6.8-0.9c21.4-2.8,41.3-9.8,59.6-21
		c34.1-20.8,57-50.4,68.9-88.5c1.9-6.2,3.6-12.4,4.6-19C493.5,291.8,492.8,291.6,492.1,291.6z M261.5,375.3L261.5,375.3L261.5,375.3
		z"/>
	
		<linearGradient id="SVGID_00000128448914408272466890000008957772875819880070_" gradientUnits="userSpaceOnUse" x1="-1.4561" y1="252.1946" x2="158.0727" y2="255.2624" gradientTransform="matrix(1 0 0 -1 0 531.3228)">
		<stop  offset="0" style="stop-color:#08D1FF"/>
		<stop  offset="1" style="stop-color:#8440F4"/>
	</linearGradient>
	<path style="fill:url(#SVGID_00000128448914408272466890000008957772875819880070_);" d="M117.4,271.6c13,0,26,0,39,0
		c1.1,0,2.1,0,3.2,0c3,0.1,4.5,1.5,4.7,4.5c0.2,3.2-1.7,5.7-4.6,5.9c-1.4,0.1-2.8,0.1-4.2,0.1c-26.2,0-52.4,0-78.5,0
		c-1.2,0-2.5,0-3.7,0c-3.1,0-5.1-2.6-5.3-4.9c-0.2-2.6,2.4-5.3,5.3-5.5c1-0.1,2.1,0,3.2,0C90,271.5,103.7,271.5,117.4,271.6
		C117.4,271.5,117.4,271.6,117.4,271.6z"/>
	
		<linearGradient id="SVGID_00000170264266065509937540000005088006657047985067_" gradientUnits="userSpaceOnUse" x1="-2.0117" y1="281.084" x2="157.5171" y2="284.1519" gradientTransform="matrix(1 0 0 -1 0 531.3228)">
		<stop  offset="0" style="stop-color:#08D1FF"/>
		<stop  offset="1" style="stop-color:#8440F4"/>
	</linearGradient>
	<path style="fill:url(#SVGID_00000170264266065509937540000005088006657047985067_);" d="M115.3,243c13.9,0,27.7,0,41.6,0
		c1.1,0,2.1,0,3.2,0c2.8,0.2,4.2,1.6,4.4,4.2c0.2,3-1.4,5.3-4.2,5.6c-1.2,0.2-2.5,0.1-3.7,0.1c-27.9,0-55.8,0-83.7,0
		c-0.9,0-1.8,0-2.6,0c-2.8-0.2-4.7-2.1-5-4.5c-0.2-2,2.3-5.6,4.8-5.3c1.2,0.1,2.5,0,3.7,0C87.6,243.1,101.4,243.1,115.3,243
		L115.3,243z"/>
	
		<linearGradient id="SVGID_00000065057435664676562480000006946902339753913234_" gradientUnits="userSpaceOnUse" x1="-2.5398" y1="308.5458" x2="156.989" y2="311.6136" gradientTransform="matrix(1 0 0 -1 0 531.3228)">
		<stop  offset="0" style="stop-color:#08D1FF"/>
		<stop  offset="1" style="stop-color:#8440F4"/>
	</linearGradient>
	<path style="fill:url(#SVGID_00000065057435664676562480000006946902339753913234_);" d="M130.2,225.4c-10,0-20,0-30,0
		c-1.4,0-2.8,0.1-4.2-0.1c-2.5-0.3-4.9-3.5-4.2-5.7c0.7-2.3,2.2-4,4.7-4.5c1-0.2,2.1-0.1,3.1-0.1c20.7,0,41.4,0,62,0
		c2.3,0,4.5,0,6.1,2.2c2.1,3.2,0.4,7.5-3.4,8.1c-1.4,0.2-2.8,0.2-4.2,0.2C150.2,225.4,140.2,225.4,130.2,225.4L130.2,225.4z"/>
	
		<linearGradient id="SVGID_00000016795847765277234250000002956385091455215531_" gradientUnits="userSpaceOnUse" x1="-0.8624" y1="221.3215" x2="158.6664" y2="224.3894" gradientTransform="matrix(1 0 0 -1 0 531.3228)">
		<stop  offset="0" style="stop-color:#08D1FF"/>
		<stop  offset="1" style="stop-color:#8440F4"/>
	</linearGradient>
	<path style="fill:url(#SVGID_00000016795847765277234250000002956385091455215531_);" d="M148.4,302.1c5.2,0,10.5,0,15.7,0
		c1.2,0,2.5-0.1,3.3,1.2c1.1,1.8,2.3,3.6,1.7,5.8c-0.4,1.6-1.7,2.7-3.4,3c-1.2,0.2-2.4,0.2-3.7,0.2c-9.4,0-18.9,0-28.3-0.1
		c-1.2,0-2.5,0.1-3.7-0.2c-3-0.5-4.6-3.6-3.3-6.4c1-2.2,2.6-3.6,5.3-3.6C137.6,302.2,143,302.1,148.4,302.1L148.4,302.1z"/>
	
		<linearGradient id="SVGID_00000036944238634977420680000012198226513534128820_" gradientUnits="userSpaceOnUse" x1="-1.4828" y1="253.5851" x2="158.046" y2="256.653" gradientTransform="matrix(1 0 0 -1 0 531.3228)">
		<stop  offset="0" style="stop-color:#08D1FF"/>
		<stop  offset="1" style="stop-color:#8440F4"/>
	</linearGradient>
	<path style="fill:url(#SVGID_00000036944238634977420680000012198226513534128820_);" d="M44.6,271.7c1.9,0,3.8-0.1,5.8,0
		c2.9,0.1,5,2.2,5.1,4.8c0.1,2.6-2.4,5.3-5.2,5.5c-2.1,0.1-4.2,0.1-6.3,0.1c-1.9,0-3.8,0.1-5.8,0c-2.9-0.2-4.8-2.4-4.8-5.2
		c0.1-2.7,2.2-5.1,4.8-5.2C40.4,271.6,42.5,271.7,44.6,271.7L44.6,271.7z"/>
	
		<linearGradient id="SVGID_00000041277096327520518970000017013023073464238267_" gradientUnits="userSpaceOnUse" x1="-0.3737" y1="195.9082" x2="159.1552" y2="198.9761" gradientTransform="matrix(1 0 0 -1 0 531.3228)">
		<stop  offset="0" style="stop-color:#08D1FF"/>
		<stop  offset="1" style="stop-color:#8440F4"/>
	</linearGradient>
	<path style="fill:url(#SVGID_00000041277096327520518970000017013023073464238267_);" d="M167.5,336.6c-2.4,0-4.9,0.1-7.3,0
		c-2.6-0.2-4.3-2-4.4-4.3c-0.1-2.4,1.9-4.6,4.6-4.6c4.2-0.1,8.4-0.1,12.5-0.1c2.7,0.1,5.6,4,5,6.7c-0.3,1.1-1,1.8-2.1,2.1
		c-0.8,0.2-1.7,0.3-2.6,0.3C171.3,336.7,169.4,336.7,167.5,336.6L167.5,336.6z"/>
	
		<linearGradient id="SVGID_00000109011418866880095260000005507404154129610167_" gradientUnits="userSpaceOnUse" x1="-0.8729" y1="221.8667" x2="158.6559" y2="224.9345" gradientTransform="matrix(1 0 0 -1 0 531.3228)">
		<stop  offset="0" style="stop-color:#08D1FF"/>
		<stop  offset="1" style="stop-color:#8440F4"/>
	</linearGradient>
	<path style="fill:url(#SVGID_00000109011418866880095260000005507404154129610167_);" d="M104.5,312.7c-1.6,0-3.2,0.1-4.7,0
		c-2.9-0.2-5-2.4-5-5.1c0-2.6,2.3-5.3,4.8-5.4c3.3-0.2,6.7,0,10,0c2.9,0,5.3,3.6,5.1,5.8c-0.3,2.5-2.5,4.6-5.4,4.7
		C107.6,312.7,106,312.7,104.5,312.7L104.5,312.7z"/>
	<polygon class="st10" points="316,420.3 316.2,420.1 316.4,420.4 316.2,420.6 	"/>
	<polygon class="st10" points="354,421.4 354.2,421.1 354.3,421.4 354.2,421.6 	"/>
	<path class="st2" d="M241.3,351.8c0.4-0.7,0-1.1-0.6-1.3C240.9,350.9,241.1,351.4,241.3,351.8z"/>
</g>
</svg>
