<?xml version="1.0" encoding="utf-8"?>
<!-- Generator: Adobe Illustrator 27.3.1, SVG Export Plug-In . SVG Version: 6.00 Build 0)  -->
<svg version="1.1" id="Layer_1" xmlns="http://www.w3.org/2000/svg" xmlns:xlink="http://www.w3.org/1999/xlink" x="0px" y="0px"
	 viewBox="0 0 530 530" style="enable-background:new 0 0 530 530;" xml:space="preserve">
<style type="text/css">
	.st0{fill:#8362F4;}
	.st1{fill:#FEFEFE;}
	.st2{fill:url(#SVGID_1_);}
	.st3{fill:url(#SVGID_00000116218003852233405630000010864261117589306770_);}
	.st4{fill:url(#SVGID_00000147197106577059868490000016685293907056730245_);}
	.st5{fill:url(#SVGID_00000154411410447498495060000005633330241174138790_);}
	.st6{fill:url(#SVGID_00000007427178736044935450000017999841059623825057_);}
	.st7{fill:url(#SVGID_00000077315045387289601890000016262282418493474702_);}
	.st8{fill:url(#SVGID_00000147941823841846298100000007576068857278168763_);}
	.st9{fill:#1082F3;}
</style>
<g>
	<path class="st0" d="M341.5,107.8c35,0.1,68,11.4,96.7,34.5c30,24.2,48.5,55.6,55.9,93.4c1.7,8.6,2.3,17.4,2.5,26.2
		c0,1.2,0,2.5-0.1,3.7c-0.1,1-0.8,1.5-1.7,1.6c-1,0.1-2.1,0.1-3.2,0.1c-5.8,0-11.6,0-17.4,0c-0.7,0-1.4,0-2.1,0
		c-2-0.1-2.5-0.5-2.7-2.4c-0.1-1.8-0.1-3.5-0.2-5.3c-0.6-22.1-6.8-42.5-18.1-61.5c-13.9-23.4-33.4-40.6-58.1-51.8
		c-23.3-10.6-47.6-14.3-73-10.1c-13.1,2.2-25.7,5.8-37.6,11.7c-23.3,11.6-41.6,28.5-54.9,50.8c-8.9,14.8-14.3,30.8-17.1,47.8
		c-0.8,4.7-0.9,9.4-1,14.2c0,1.6-0.1,3.2-0.2,4.7c-0.1,1-0.8,1.5-1.8,1.7c-0.2,0-0.4,0-0.5,0c-7.4,0-14.8,0-22.1-0.1
		c-2.3,0-2.7-0.5-2.7-2.9c0-13.2,1.4-26.3,4.8-39.1c6.2-23.1,17.2-43.7,32.6-62c11.3-13.5,24.7-24.5,39.7-33.5
		c18.3-11,38.2-17.6,59.4-20.4C325.6,108.3,332.6,108.1,341.5,107.8z"/>
	<path class="st1" d="M285.8,264.4c0.2-17,0.5-33.3,0.7-49.7c0-2.3,0.5-4.5,1.6-6.6c3.1-5.5,8.9-7.7,14.9-5.6
		c1.8,0.6,3.5,1.6,5.2,2.5c19.2,10.9,38.4,21.9,57.6,32.9c8.4,4.8,16.7,9.6,25.1,14.5c0.9,0.5,1.8,1,2.7,1.7
		c7.4,5.6,7.1,16.3-0.5,21.5c-0.7,0.5-1.5,0.9-2.3,1.3c-16.3,9.3-32.7,18.5-49,27.8c-11.1,6.3-22.2,12.7-33.4,19.1
		c-1.5,0.9-3.1,1.7-4.7,2.4c-8.6,3.5-15.9-2.9-17-9.8c-0.3-1.7-0.3-3.5-0.3-5.3C286.2,295.4,286,279.6,285.8,264.4z"/>
	<path class="st1" d="M492.1,291.6c-7.7,0-15.5-0.1-23.2-0.1c-0.3,0-0.7,0-1,0c-0.7,0.1-1.3,0.5-1.5,1.3c-0.2,0.7-0.3,1.4-0.5,2.1
		c-10.4,40.5-34.3,70.2-72.1,88.2c-16.1,7.7-33.3,11.8-51.4,12.1c-15.6,0.3-30.7-2.2-45.6-7c-20.7-6.8-38.1-18.4-53-34.1
		c-0.8-0.8-5.1-6.5-6.1-7.9c-5.5-7.5-10.5-15.3-14.5-23.8c-4.3-9-8-18.3-10.4-28.1c-0.7-2.7-0.9-2.9-3.5-2.9
		c-7.5,0-15.1,0.1-22.6,0.3c-2.3,0-2.7,0.6-2.3,3c0.6,3.3,1.4,6.5,2.2,9.7c5.3,19.1,13.8,36.7,25.4,52.8
		c5.6,7.8,11.9,15.2,19.2,21.5c1.7,1.7,3.4,3.5,5.3,5.1c14.2,12.3,30.2,21.6,47.9,28.1c10.3,3.8,20.8,6.4,31.5,8.3l0.2-0.2
		c0,0,0.2,0.3,0.2,0.3c2.1,0.3,4.1,0.7,6.2,0.9c10.5,1.1,20.9,1.3,31.4,0.1l0.2-0.3c0,0,0.2,0.2,0.2,0.2c2.3-0.3,4.5-0.6,6.8-0.9
		c21.4-2.8,41.3-9.8,59.6-21c34.1-20.8,57-50.4,68.9-88.5c1.9-6.2,3.6-12.4,4.6-19C493.5,291.8,492.8,291.6,492.1,291.6z
		 M261.5,375.3C261.5,375.3,261.5,375.3,261.5,375.3C261.5,375.3,261.5,375.3,261.5,375.3z"/>
	<linearGradient id="SVGID_1_" gradientUnits="userSpaceOnUse" x1="-1.4577" y1="279.0464" x2="158.0711" y2="275.9786">
		<stop  offset="0" style="stop-color:#08D1FF"/>
		<stop  offset="1" style="stop-color:#8440F4"/>
	</linearGradient>
	<path class="st2" d="M117.4,271.6c13,0,26,0,39,0c1.1,0,2.1,0,3.2,0c3,0.1,4.5,1.5,4.7,4.5c0.2,3.2-1.7,5.7-4.6,5.9
		c-1.4,0.1-2.8,0.1-4.2,0.1c-26.2,0-52.4,0-78.5,0c-1.2,0-2.5,0-3.7,0c-3.1,0-5.1-2.6-5.3-4.9c-0.2-2.6,2.4-5.3,5.3-5.5
		c1-0.1,2.1,0,3.2,0C90,271.5,103.7,271.5,117.4,271.6C117.4,271.5,117.4,271.6,117.4,271.6z"/>
	
		<linearGradient id="SVGID_00000028296126020449669250000017631288782090805434_" gradientUnits="userSpaceOnUse" x1="-2.0118" y1="250.2319" x2="157.517" y2="247.164">
		<stop  offset="0" style="stop-color:#08D1FF"/>
		<stop  offset="1" style="stop-color:#8440F4"/>
	</linearGradient>
	<path style="fill:url(#SVGID_00000028296126020449669250000017631288782090805434_);" d="M115.3,243c13.9,0,27.7,0,41.6,0
		c1.1,0,2.1,0,3.2,0c2.8,0.2,4.2,1.6,4.4,4.2c0.2,3-1.4,5.3-4.2,5.6c-1.2,0.2-2.5,0.1-3.7,0.1c-27.9,0-55.8,0-83.7,0
		c-0.9,0-1.8,0-2.6,0c-2.8-0.2-4.7-2.1-5-4.5c-0.2-2,2.3-5.6,4.8-5.3c1.2,0.1,2.5,0,3.7,0C87.6,243.1,101.4,243.1,115.3,243
		C115.3,243,115.3,243,115.3,243z"/>
	
		<linearGradient id="SVGID_00000101793700722594402520000009469465141461245072_" gradientUnits="userSpaceOnUse" x1="-2.5411" y1="222.7088" x2="156.9877" y2="219.641">
		<stop  offset="0" style="stop-color:#08D1FF"/>
		<stop  offset="1" style="stop-color:#8440F4"/>
	</linearGradient>
	<path style="fill:url(#SVGID_00000101793700722594402520000009469465141461245072_);" d="M130.2,225.4c-10,0-20,0-30,0
		c-1.4,0-2.8,0.1-4.2-0.1c-2.5-0.3-4.9-3.5-4.2-5.7c0.7-2.3,2.2-4,4.7-4.5c1-0.2,2.1-0.1,3.1-0.1c20.7,0,41.4,0,62,0
		c2.3,0,4.5,0,6.1,2.2c2.1,3.2,0.4,7.5-3.4,8.1c-1.4,0.2-2.8,0.2-4.2,0.2C150.2,225.4,140.2,225.4,130.2,225.4
		C130.2,225.4,130.2,225.4,130.2,225.4z"/>
	
		<linearGradient id="SVGID_00000151540340583852114080000008897756124263337604_" gradientUnits="userSpaceOnUse" x1="-0.862" y1="310.0203" x2="158.6668" y2="306.9524">
		<stop  offset="0" style="stop-color:#08D1FF"/>
		<stop  offset="1" style="stop-color:#8440F4"/>
	</linearGradient>
	<path style="fill:url(#SVGID_00000151540340583852114080000008897756124263337604_);" d="M148.4,302.1c5.2,0,10.5,0,15.7,0
		c1.2,0,2.5-0.1,3.3,1.2c1.1,1.8,2.3,3.6,1.7,5.8c-0.4,1.6-1.7,2.7-3.4,3c-1.2,0.2-2.4,0.2-3.7,0.2c-9.4,0-18.9,0-28.3-0.1
		c-1.2,0-2.5,0.1-3.7-0.2c-3-0.5-4.6-3.6-3.3-6.4c1-2.2,2.6-3.6,5.3-3.6C137.6,302.2,143,302.1,148.4,302.1
		C148.4,302.1,148.4,302.1,148.4,302.1z"/>
	
		<linearGradient id="SVGID_00000142166371918380211900000013957757811237020049_" gradientUnits="userSpaceOnUse" x1="-1.4826" y1="277.7486" x2="158.0462" y2="274.6807">
		<stop  offset="0" style="stop-color:#08D1FF"/>
		<stop  offset="1" style="stop-color:#8440F4"/>
	</linearGradient>
	<path style="fill:url(#SVGID_00000142166371918380211900000013957757811237020049_);" d="M44.6,271.7c1.9,0,3.8-0.1,5.8,0
		c2.9,0.1,5,2.2,5.1,4.8c0.1,2.6-2.4,5.3-5.2,5.5c-2.1,0.1-4.2,0.1-6.3,0.1c-1.9,0-3.8,0.1-5.8,0c-2.9-0.2-4.8-2.4-4.8-5.2
		c0.1-2.7,2.2-5.1,4.8-5.2C40.4,271.6,42.5,271.7,44.6,271.7C44.6,271.7,44.6,271.7,44.6,271.7z"/>
	
		<linearGradient id="SVGID_00000114761714507553049930000005130535628268396160_" gradientUnits="userSpaceOnUse" x1="-0.3753" y1="335.329" x2="159.1535" y2="332.2611">
		<stop  offset="0" style="stop-color:#08D1FF"/>
		<stop  offset="1" style="stop-color:#8440F4"/>
	</linearGradient>
	<path style="fill:url(#SVGID_00000114761714507553049930000005130535628268396160_);" d="M167.5,336.6c-2.4,0-4.9,0.1-7.3,0
		c-2.6-0.2-4.3-2-4.4-4.3c-0.1-2.4,1.9-4.6,4.6-4.6c4.2-0.1,8.4-0.1,12.5-0.1c2.7,0.1,5.6,4,5,6.7c-0.3,1.1-1,1.8-2.1,2.1
		c-0.8,0.2-1.7,0.3-2.6,0.3C171.3,336.7,169.4,336.7,167.5,336.6C167.5,336.6,167.5,336.6,167.5,336.6z"/>
	
		<linearGradient id="SVGID_00000107568296184669020580000009760773062916728750_" gradientUnits="userSpaceOnUse" x1="-0.8735" y1="309.4235" x2="158.6553" y2="306.3557">
		<stop  offset="0" style="stop-color:#08D1FF"/>
		<stop  offset="1" style="stop-color:#8440F4"/>
	</linearGradient>
	<path style="fill:url(#SVGID_00000107568296184669020580000009760773062916728750_);" d="M104.5,312.7c-1.6,0-3.2,0.1-4.7,0
		c-2.9-0.2-5-2.4-5-5.1c0-2.6,2.3-5.3,4.8-5.4c3.3-0.2,6.7,0,10,0c2.9,0,5.3,3.6,5.1,5.8c-0.3,2.5-2.5,4.6-5.4,4.7
		C107.6,312.7,106,312.7,104.5,312.7C104.5,312.7,104.5,312.7,104.5,312.7z"/>
	<polygon class="st9" points="316,420.3 316.2,420.1 316.4,420.4 316.2,420.6 	"/>
	<polygon class="st9" points="354,421.4 354.2,421.1 354.3,421.4 354.2,421.6 	"/>
	<path class="st1" d="M241.3,351.8c0.4-0.7,0-1.1-0.6-1.3C240.9,350.9,241.1,351.4,241.3,351.8z"/>
</g>
</svg>
