<?xml version="1.0" encoding="utf-8"?>
<!-- Generator: Adobe Illustrator 27.3.1, SVG Export Plug-In . SVG Version: 6.00 Build 0)  -->
<svg version="1.1" id="Layer_1" xmlns="http://www.w3.org/2000/svg" xmlns:xlink="http://www.w3.org/1999/xlink" x="0px" y="0px"
	 viewBox="0 0 1201 629.3" style="enable-background:new 0 0 1201 629.3;" xml:space="preserve">
<style type="text/css">
	.st0{fill:#8362F4;}
	.st1{fill:#FEFEFE;}
	.st2{fill:url(#SVGID_1_);}
	.st3{fill:url(#SVGID_00000139991819371058061060000010426915881976318895_);}
	.st4{fill:url(#SVGID_00000136377589721707626880000004017433024851449758_);}
	.st5{fill:url(#SVGID_00000150093014338768768870000001320328399541771694_);}
	.st6{fill:url(#SVGID_00000091005630726020378110000002911143712055823534_);}
	.st7{fill:url(#SVGID_00000137833024718484926910000010713200933424288394_);}
	.st8{fill:url(#SVGID_00000118398315373329896570000014585766222561842562_);}
	.st9{fill:#1082F3;}
	.st10{fill:url(#SVGID_00000008839975530911399480000013652877609582217095_);}
	.st11{fill:url(#SVGID_00000168081284487043108490000017243783214831034814_);}
	.st12{fill:url(#SVGID_00000181067564706330647120000002725680192896328367_);}
</style>
<g>
	<path class="st0" d="M347.3,133.5c31,0.1,60.2,10.1,85.6,30.5c26.6,21.4,43,49.2,49.5,82.7c1.5,7.6,2,15.4,2.2,23.2
		c0,1.1,0,2.2-0.1,3.3c-0.1,0.9-0.7,1.4-1.5,1.4c-0.9,0.1-1.9,0.1-2.8,0.1c-5.1,0-10.3,0-15.4,0c-0.6,0-1.2,0-1.9,0
		c-1.8-0.1-2.2-0.5-2.4-2.2c-0.1-1.6-0.1-3.1-0.1-4.7c-0.5-19.6-6-37.7-16-54.5c-12.3-20.7-29.6-36-51.4-45.9
		c-20.6-9.4-42.2-12.7-64.7-9c-11.6,1.9-22.7,5.1-33.3,10.4c-20.6,10.3-36.8,25.2-48.7,45c-7.9,13.1-12.7,27.3-15.1,42.4
		c-0.7,4.2-0.8,8.4-0.9,12.6c0,1.4-0.1,2.8-0.2,4.2c-0.1,0.9-0.7,1.3-1.6,1.5c-0.2,0-0.3,0-0.5,0c-6.5,0-13.1,0-19.6,0
		c-2.1,0-2.4-0.4-2.4-2.5c0-11.7,1.2-23.3,4.3-34.6c5.5-20.5,15.3-38.7,28.9-54.9c10-11.9,21.9-21.7,35.2-29.7
		c16.2-9.8,33.8-15.6,52.6-18.1C333.2,133.9,339.4,133.8,347.3,133.5z"/>
	<path class="st1" d="M298,272.2c0.2-15.1,0.4-29.5,0.6-44c0-2.1,0.4-4,1.4-5.8c2.7-4.9,7.9-6.9,13.2-5c1.6,0.6,3.1,1.4,4.6,2.2
		c17,9.7,34,19.4,51,29.1c7.4,4.2,14.8,8.5,22.2,12.8c0.8,0.5,1.6,0.9,2.4,1.5c6.6,4.9,6.3,14.5-0.5,19.1c-0.6,0.4-1.3,0.8-2,1.2
		c-14.5,8.2-29,16.4-43.4,24.6c-9.9,5.6-19.7,11.3-29.5,16.9c-1.3,0.8-2.7,1.5-4.1,2.1c-7.7,3.1-14.1-2.5-15-8.7
		c-0.2-1.5-0.3-3.1-0.3-4.7C298.3,299.6,298.2,285.6,298,272.2z"/>
	<path class="st1" d="M480.7,296.2c-6.8,0-13.7,0-20.5-0.1c-0.3,0-0.6,0-0.9,0c-0.7,0.1-1.1,0.5-1.3,1.1c-0.2,0.6-0.3,1.2-0.4,1.8
		c-9.2,35.9-30.4,62.2-63.8,78.1c-14.3,6.8-29.5,10.4-45.5,10.7c-13.8,0.3-27.2-1.9-40.3-6.2c-18.3-6-33.8-16.3-46.9-30.2
		c-0.7-0.7-4.5-5.7-5.4-7c-4.9-6.6-9.3-13.6-12.9-21c-3.9-8-7.1-16.2-9.2-24.9c-0.6-2.4-0.8-2.6-3.1-2.6c-6.7,0-13.4,0.1-20,0.2
		c-2,0-2.4,0.5-2,2.6c0.6,2.9,1.2,5.8,2,8.6c4.7,16.9,12.3,32.5,22.5,46.8c5,6.9,10.5,13.4,17,19.1c1.5,1.5,3,3.1,4.7,4.5
		c12.6,10.9,26.8,19.1,42.4,24.9c9.1,3.3,18.4,5.7,27.9,7.4l0.2-0.2l0.1,0.2c1.8,0.3,3.7,0.6,5.5,0.8c9.3,0.9,18.5,1.1,27.8,0.1
		l0.2-0.2l0.2,0.2c2-0.3,4-0.5,6-0.8c18.9-2.5,36.6-8.7,52.8-18.6c30.2-18.4,50.5-44.7,61.1-78.4c1.7-5.5,3.2-11,4.1-16.8
		C481.9,296.4,481.3,296.2,480.7,296.2z M276.5,370.4C276.5,370.4,276.4,370.4,276.5,370.4C276.4,370.4,276.5,370.4,276.5,370.4z"/>
	
		<linearGradient id="SVGID_1_" gradientUnits="userSpaceOnUse" x1="43.5967" y1="344.1905" x2="184.8713" y2="346.9073" gradientTransform="matrix(1 0 0 -1 0 629.3228)">
		<stop  offset="0" style="stop-color:#08D1FF"/>
		<stop  offset="1" style="stop-color:#8440F4"/>
	</linearGradient>
	<path class="st2" d="M148.9,278.5c11.5,0,23,0,34.5,0c0.9,0,1.9,0,2.8,0c2.7,0.1,3.9,1.3,4.1,4c0.2,2.8-1.5,5-4.1,5.2
		c-1.2,0.1-2.5,0.1-3.7,0.1c-23.2,0-46.4,0-69.6,0c-1.1,0-2.2,0-3.3,0c-2.8,0-4.5-2.3-4.7-4.4c-0.2-2.3,2.1-4.7,4.7-4.9
		c0.9-0.1,1.9,0,2.8,0C124.6,278.5,136.7,278.5,148.9,278.5L148.9,278.5z"/>
	
		<linearGradient id="SVGID_00000179609094253231477480000009409617903243657879_" gradientUnits="userSpaceOnUse" x1="43.1062" y1="369.6934" x2="184.3808" y2="372.4102" gradientTransform="matrix(1 0 0 -1 0 629.3228)">
		<stop  offset="0" style="stop-color:#08D1FF"/>
		<stop  offset="1" style="stop-color:#8440F4"/>
	</linearGradient>
	<path style="fill:url(#SVGID_00000179609094253231477480000009409617903243657879_);" d="M147,253.2c12.3,0,24.5,0,36.8,0
		c0.9,0,1.9,0,2.8,0c2.5,0.2,3.7,1.4,3.9,3.7c0.2,2.7-1.3,4.7-3.8,5c-1.1,0.1-2.2,0.1-3.3,0.1c-24.7,0-49.4,0-74.1,0
		c-0.8,0-1.6,0-2.3,0c-2.5-0.2-4.2-1.8-4.4-4c-0.2-1.8,2.1-4.9,4.2-4.7c1.1,0.1,2.2,0,3.3,0C122.4,253.3,134.7,253.3,147,253.2
		C147,253.3,147,253.2,147,253.2z"/>
	
		<linearGradient id="SVGID_00000135678254122633587350000000061247759979608992_" gradientUnits="userSpaceOnUse" x1="42.637" y1="394.0977" x2="183.9116" y2="396.8145" gradientTransform="matrix(1 0 0 -1 0 629.3228)">
		<stop  offset="0" style="stop-color:#08D1FF"/>
		<stop  offset="1" style="stop-color:#8440F4"/>
	</linearGradient>
	<path style="fill:url(#SVGID_00000135678254122633587350000000061247759979608992_);" d="M160.2,237.6c-8.8,0-17.7,0-26.5,0
		c-1.2,0-2.5,0.1-3.7-0.1c-2.2-0.3-4.4-3.1-3.8-5.1s2-3.5,4.1-4c0.9-0.2,1.9-0.1,2.8-0.1c18.3,0,36.6,0,54.9,0c2.1,0,4,0,5.4,2
		c1.9,2.8,0.4,6.7-3,7.2c-1.2,0.2-2.5,0.1-3.7,0.1C177.9,237.7,169,237.6,160.2,237.6L160.2,237.6z"/>
	
		<linearGradient id="SVGID_00000157276720803620301580000017259954244164445593_" gradientUnits="userSpaceOnUse" x1="44.1232" y1="316.8097" x2="185.3978" y2="319.5265" gradientTransform="matrix(1 0 0 -1 0 629.3228)">
		<stop  offset="0" style="stop-color:#08D1FF"/>
		<stop  offset="1" style="stop-color:#8440F4"/>
	</linearGradient>
	<path style="fill:url(#SVGID_00000157276720803620301580000017259954244164445593_);" d="M176.3,305.6c4.6,0,9.3,0,13.9,0
		c1.1,0,2.2-0.1,2.9,1c1,1.6,2,3.2,1.5,5.2c-0.4,1.4-1.5,2.4-3,2.6c-1.1,0.2-2.2,0.1-3.2,0.1c-8.4,0-16.7,0-25.1-0.1
		c-1.1,0-2.2,0-3.2-0.1c-2.7-0.5-4.1-3.2-2.9-5.7c0.9-1.9,2.3-3.2,4.7-3.2C166.7,305.6,171.5,305.6,176.3,305.6L176.3,305.6z"/>
	
		<linearGradient id="SVGID_00000111911496370995798080000013695148234545686712_" gradientUnits="userSpaceOnUse" x1="43.5753" y1="345.3005" x2="184.8499" y2="348.0173" gradientTransform="matrix(1 0 0 -1 0 629.3228)">
		<stop  offset="0" style="stop-color:#08D1FF"/>
		<stop  offset="1" style="stop-color:#8440F4"/>
	</linearGradient>
	<path style="fill:url(#SVGID_00000111911496370995798080000013695148234545686712_);" d="M84.3,278.6c1.7,0,3.4-0.1,5.1,0
		c2.6,0.1,4.5,1.9,4.6,4.3c0.1,2.3-2.1,4.7-4.6,4.9c-1.8,0.1-3.7,0.1-5.6,0.1c-1.7,0-3.4,0.1-5.1,0c-2.6-0.2-4.3-2.1-4.2-4.6
		c0.1-2.4,1.9-4.5,4.3-4.6C80.6,278.5,82.5,278.6,84.3,278.6L84.3,278.6z"/>
	
		<linearGradient id="SVGID_00000128453925623141441410000012457649411857951911_" gradientUnits="userSpaceOnUse" x1="44.5577" y1="294.2141" x2="185.8323" y2="296.9309" gradientTransform="matrix(1 0 0 -1 0 629.3228)">
		<stop  offset="0" style="stop-color:#08D1FF"/>
		<stop  offset="1" style="stop-color:#8440F4"/>
	</linearGradient>
	<path style="fill:url(#SVGID_00000128453925623141441410000012457649411857951911_);" d="M193.2,336.1c-2.2,0-4.3,0.1-6.5,0
		c-2.3-0.2-3.8-1.8-3.9-3.8c-0.1-2.1,1.7-4,4.1-4.1c3.7-0.1,7.4-0.1,11.1,0c2.4,0,5,3.6,4.4,6c-0.2,1-0.9,1.6-1.9,1.8
		c-0.7,0.2-1.5,0.3-2.3,0.3C196.6,336.2,194.9,336.2,193.2,336.1L193.2,336.1z"/>
	
		<linearGradient id="SVGID_00000001664590124881084350000002884236068318687132_" gradientUnits="userSpaceOnUse" x1="44.1147" y1="317.257" x2="185.3892" y2="319.9738" gradientTransform="matrix(1 0 0 -1 0 629.3228)">
		<stop  offset="0" style="stop-color:#08D1FF"/>
		<stop  offset="1" style="stop-color:#8440F4"/>
	</linearGradient>
	<path style="fill:url(#SVGID_00000001664590124881084350000002884236068318687132_);" d="M137.4,314.9c-1.4,0-2.8,0.1-4.2,0
		c-2.6-0.2-4.4-2.1-4.4-4.5c0-2.3,2-4.7,4.3-4.8c2.9-0.1,5.9,0,8.9,0c2.6,0,4.7,3.2,4.5,5.1c-0.2,2.3-2.2,4-4.8,4.2
		C140.2,315,138.8,314.9,137.4,314.9L137.4,314.9z"/>
	<polygon class="st9" points="324.7,410.3 324.9,410.1 325.1,410.3 324.9,410.5 	"/>
	<polygon class="st9" points="358.4,411.2 358.5,411 358.7,411.2 358.5,411.4 	"/>
	<path class="st1" d="M258.6,349.6c0.3-0.6,0-1-0.5-1.2C258.2,348.8,258.4,349.2,258.6,349.6z"/>
	<path class="st1" d="M1094.3,321.5c0-11.7,0-23.3,0-35c0-0.9,0-1.9,0-2.8c0.1-1.4,0.5-1.8,2-1.9c0.5,0,0.9,0,1.4,0
		c9.2,0,18.3-0.1,27.5,0c5.1,0.1,10.2,0.8,15.1,2.6c15.6,5.6,24.1,16.8,25.8,33.3c0.6,5.9,0,11.8-1.8,17.5
		c-3.4,10.9-10.3,18.6-20.9,23c-5.4,2.2-11,3.5-16.8,3.6c-10.1,0.1-20.2,0-30.3,0c-2.1,0-2.5-0.8-2.5-2.5c0-3.7,0-7.5,0-11.2
		c0-8.9,0-17.7,0-26.6C1094.1,321.5,1094.2,321.5,1094.3,321.5z M1113.9,321.7L1113.9,321.7c0,0.9,0,1.9,0,2.8c0,5.9,0,11.8,0,17.7
		c0,1.8,0.2,2,1.8,2c3.4,0,6.8,0.2,10.2-0.1c10.9-1,15.8-5.8,18.6-13.6c1.7-4.6,1.8-9.5,0.8-14.2c-1.9-8.9-7.3-14.4-16.4-16.2
		c-4.2-0.8-8.3-0.5-12.5-0.6c-2.4,0-2.5,0.1-2.5,2.7C1113.9,308.7,1113.9,315.2,1113.9,321.7z"/>
	<path class="st1" d="M1028.7,321.6c0-11.8,0-23.7,0-35.5c0-0.9-0.1-1.9,0.1-2.8c0.1-0.8,0.6-1.4,1.5-1.4s1.9-0.1,2.8-0.1
		c16,0,32.1,0,48.1,0c0.6,0,1.2,0,1.9,0.1c0.9,0.1,1.4,0.7,1.4,1.5c0.1,4.8,0.1,9.6,0.1,14.5c0,0.9-0.5,1.5-1.4,1.5
		c-1.2,0-2.5,0-3.7,0c-8.7,0-17.4,0-26.1,0c-1.1,0-2.2,0-3.3,0.1c-0.7,0-1.2,0.4-1.2,1.1c0,3.7-0.1,7.5,0,11.2
		c0,0.9,0.6,1.4,1.5,1.4c1.1,0,2.2,0,3.3,0.1c8.1,0,16.2,0.1,24.3,0.1c1.1,0,2.2,0,3.3,0.1c0.7,0,1.1,0.5,1.2,1.2
		c0,4.5,0.1,9,0.1,13.5c0,0.9-0.5,1.5-1.4,1.5c-1.2,0.1-2.5,0.1-3.7,0.1c-7.8,0-15.6,0-23.3,0.1c-0.6,0-1.2,0-1.9,0
		c-3.2,0-3.2,0-3.2,3c0,1.1,0,2.2,0,3.3c0,1.7,0,3.4,0,5.1c0,3,0,3.1,3.1,3.1c8.6,0,17.1,0,25.7,0.1c2.3,0,5.1-1,6.8,0.6
		c1.8,1.8,0.6,4.7,0.7,7.1c0.1,2.5,0.1,5,0,7.5c0,1.6-0.4,2-1.8,2.1c-0.8,0-1.6,0-2.3,0c-15.9,0-31.7,0-47.6,0c-0.8,0-1.6,0-2.3,0
		c-1.6-0.1-2-0.4-2.1-1.8c-0.1-0.9-0.1-1.9-0.1-2.8C1028.7,345.3,1028.7,333.5,1028.7,321.6L1028.7,321.6z"/>
	<path class="st1" d="M544.2,281.8c9.3,0,18.7,0,28,0c0.9,0,1.9,0,2.8,0c1.2,0,1.6,0.8,1.7,1.8c0,3,0.1,5.9,0,8.9
		c0,1.9,0,3.7-0.1,5.6c0,0.7-0.5,1.2-1.2,1.2c-1.2,0.1-2.5,0.1-3.7,0.1c-5.3,0-10.6,0-15.9,0c-1.1,0-1.8,0.5-1.8,1.6
		c0,1.2,0,2.5,0,3.7c0,17.3,0,34.5,0,51.8c0,6,0.4,5.2-5.2,5.3c-4.2,0-8.4,0.1-12.6,0c-1.9,0-2.1-0.3-2.2-2.2c-0.1-1.6,0-3.1,0-4.7
		c0-16.9,0-33.9,0-50.8c0-1.2,0-2.5-0.1-3.7c0-0.3-0.5-0.8-0.9-0.9c-1.1-0.1-2.2-0.1-3.3-0.1c-5.4,0-10.9,0-16.3,0
		c-1.1,0-1.8-0.4-1.8-1.6c0-4.7,0-9.3,0.1-14c0-1.1,0.5-1.8,1.6-1.8c0.9,0,1.9,0,2.8,0C525.6,281.9,534.9,281.9,544.2,281.8
		L544.2,281.8z"/>
	
		<linearGradient id="SVGID_00000096741773727372848070000017737323587830925485_" gradientUnits="userSpaceOnUse" x1="503.7543" y1="414.4542" x2="718.3831" y2="406.3037" gradientTransform="matrix(1 0 0 -1 0 629.3228)">
		<stop  offset="0" style="stop-color:#08D1FF"/>
		<stop  offset="1" style="stop-color:#8440F4"/>
	</linearGradient>
	<path style="fill:url(#SVGID_00000096741773727372848070000017737323587830925485_);" d="M518.2,176.4c1-0.6,2.1-0.4,3.2-0.4
		c13.8,0,27.7-0.1,41.5-0.1c3.4,0,6.8,0.3,10.2,1.1c13.3,3.4,18.7,15.7,15.3,27.1c-1.5,5.1-4.6,9.1-9.8,11.2c0.3,1,1.2,0.8,1.7,1.1
		c0.7,0.4,1.4,0.7,2.1,1.1c0.7,0.4,1.3,0.9,1.9,1.3c2.4,1.5,4.1,3.7,5.2,6.4c1.8,4.4,2.7,8.9,1.6,13.6c-1.4,6.3-4.7,11.1-10.6,14
		c-4.9,2.5-10.2,3.8-15.7,3.8c-10.6,0-21.1,0.1-31.7,0.1c-4.4,0-8.7,0-13.1,0c-2.1,0-2.3-0.3-2.4-2.4c0-0.3,0-0.6,0-0.9
		c0-24.6,0.1-49.1,0.1-73.7C517.8,178.5,517.6,177.4,518.2,176.4z M538.6,224.1c0,4.9,0,9,0,13.2c0,1.8,0.3,2.1,2.2,2.1
		c6.8,0,13.6,0,20.4,0c0.9,0,1.9-0.1,2.8-0.3c3.9-0.9,6.2-3.6,6.2-7.1c0-3.8-2.3-6.8-6.2-7.6c-1.5-0.3-3.1-0.4-4.6-0.4
		c-5.6,0-11.1,0.1-16.7,0.1C541.5,224.2,540.3,224.1,538.6,224.1z M550.9,193.3v0.1c-3.3,0-6.5,0-9.8,0c-2.4,0-2.5,0.1-2.5,2.3
		c0,3.3,0,6.5,0,9.8c0,1.9,0.3,2.2,2.1,2.2c6.4,0,12.7,0,19.1,0c1.6,0,3.1-0.4,4.5-1c3.7-1.6,5.1-5.8,3.3-9.4
		c-1.2-2.3-3.1-3.5-5.6-3.6C558.4,193.4,554.6,193.4,550.9,193.3z"/>
	<path class="st1" d="M896.8,314.9c-0.8,1.6-0.5,2.9-0.5,4.1c0,12.1,0,24.3,0,36.4c0,1.2,0,2.5,0,3.7c-0.1,2.2-0.3,2.6-2.3,2.6
		c-5,0.1-10,0.1-14.9,0.1c-1.8,0-2.1-0.3-2.1-2.3c-0.1-2.6,0-5.3,0-7.9c0-21.5,0-42.9-0.1-64.4c0-1.2,0-2.5,0-3.7
		c0-1.1,0.7-1.6,1.8-1.6c5.6,0,11.2,0,16.8,0c1.3,0,2,0.6,2.6,1.6c1.7,2.6,3.4,5.2,5.1,7.8c7.8,11.8,15.5,23.7,23.3,35.5
		c0.3,0.5,0.7,1,1,1.4c1.3-0.5,0.8-1.6,0.8-2.4c0.1-13.1,0.1-26.1,0.1-39.2c0-5.1-0.1-4.6,4.5-4.6c3.9,0,7.8,0,11.7,0
		c3.2,0,3.2,0.1,3.3,3.5c0,0.5,0,0.9,0,1.4c0,23.5,0,47-0.1,70.5c0,0.5,0,0.9,0,1.4c-0.1,3.1-0.1,3.1-3.2,3.1
		c-4.8,0-9.6-0.1-14.5,0.1c-1.8,0-2.8-0.7-3.7-2.1c-9.5-14.6-19.1-29.1-28.6-43.7C897.5,315.7,897.3,315.5,896.8,314.9z"/>
	<path class="st1" d="M619.8,280.5c14.6,0.2,26.1,6,34.3,18.2c2.9,4.3,4.6,9.2,5.6,14.2c2.3,10.6,0.9,20.8-4.5,30.2
		c-7.3,12.6-18.7,19.3-33.1,20.5c-11.8,0.9-22.4-2.4-31.5-10.3c-6-5.3-10-11.8-12-19.6c-2.7-10.3-2.3-20.4,2.3-30.1
		c5.7-12,15-19.6,28.2-22.2C612.7,280.8,616.2,280.5,619.8,280.5z M597.6,321.9c0,3.9,0.7,7.6,2.3,10.9c3.5,7.2,9.1,11.8,17.3,12.3
		c8.5,0.6,15.1-2.9,19.6-10.1c4.1-6.6,4.5-13.8,2.3-21.1c-2.8-9.2-10.8-15.3-20-15.4c-8.9-0.1-17.1,5.9-20.1,14.7
		C598,316,597.6,319,597.6,321.9z"/>
	<path class="st1" d="M788.4,332.7c5,10,11.1,19,16.5,29.1c-4.8,0-8.8,0.1-12.8,0c-2.9-0.1-6.2,1-8.7-0.5c-2.3-1.5-2.9-4.7-4.3-7.1
		c-3.2-5.7-6.3-11.4-9.4-17.2c-0.7-1.3-1.4-1.9-2.9-1.8c-8.3,0.3-7.1-1.2-7.2,7.2c0,5,0.1,10,0.1,14.9c0,1.1-0.1,2.2-0.2,3.2
		c-0.1,0.6-0.5,1.1-1.2,1.2c-0.5,0.1-0.9,0.1-1.4,0.1c-4.8,0-9.6,0.1-14.5,0c-2,0-2.4-0.4-2.4-2.5c0-0.5,0-0.9,0-1.4
		c0-24,0-47.9,0-71.9c0-4.3,0.1-4.2,4-4.2c9.8,0,19.6,0,29.4,0c3.7,0,7.4,0.5,11.1,1.5c9.8,2.6,17,10.1,18.5,22.1
		c0.4,3.1,0.3,6.2-0.4,9.3c-1.6,7.4-5.5,13.1-12.2,16.8C789.9,331.9,789.3,332.2,788.4,332.7z M767.6,318.3L767.6,318.3
		c2.5,0,5,0.2,7.4-0.1c3.5-0.4,6.1-2.3,7.3-5.7c2.3-6.4-1.2-12.1-7.9-13.1c-0.6-0.1-1.2-0.1-1.9-0.1c-3.6,0-7.2,0-10.7,0
		c-1.6,0-2,0.3-2,1.8c0,5.1,0,10.3,0,15.4c0,1.1,0.4,1.8,1.6,1.7C763.5,318.3,765.6,318.3,767.6,318.3z"/>
	<path class="st1" d="M717.3,332.8c4.9,9.7,10.6,18.9,16,28.5c-1,0.2-1.4,0.4-1.9,0.4c-5.8,0-11.5,0-17.3,0.1
		c-1.7,0-2.8-0.5-3.6-2.1c-3.8-7.3-7.8-14.5-11.6-21.8c-1-1.9-2.1-2.8-4.3-2.7c-7.7,0.4-6.4-1-6.5,6.4c-0.1,5.9,0,11.8,0,17.7
		c0,1.9-0.4,2.4-2,2.4c-5.3,0.1-10.6,0.1-15.9,0.1c-1.4,0-1.8-0.5-1.9-2c-0.1-1.1,0-2.2,0-3.3c0-23.5,0-47,0-70.5c0-4.4,0-4.2,4-4.2
		c10.3,0,20.5,0,30.8,0c4.4,0,8.7,0.7,12.7,2.4c9,3.7,14,10.4,15.6,19.9c0.6,3.6,0.4,7.1-0.3,10.7c-1.3,6.2-4.2,11.3-9.4,15.1
		C720.3,330.8,718.9,331.7,717.3,332.8z M688.1,308.7L688.1,308.7c0,2.6,0,5.3,0,7.9c0,1.1,0.5,1.7,1.6,1.8c4,0,8.1,0.1,12.1,0.1
		c0.9,0,1.8-0.2,2.8-0.4c2.6-0.5,4.5-2.1,5.6-4.4c3.4-6.5-0.5-13.6-8.1-14.1c-4.2-0.3-8.4-0.1-12.6-0.1c-1.2,0-1.5,0.8-1.5,1.8
		C688.1,303.7,688.1,306.2,688.1,308.7z"/>
	<path class="st1" d="M864.8,329.1c-2,0.8-3.5,0.5-5.1,0.6c-8.1,0.1-16.2,0.1-24.3,0.1c-0.8,0-1.6,0-2.3,0c-0.9,0-1.4,0.5-1.4,1.4
		c0,3.9,0,7.8,0,11.7c0,0.9,0.5,1.4,1.4,1.4c1.1,0,2.2,0,3.3,0c8.7,0,17.4,0,26.1,0c1.1,0,2.2,0,3.3,0s1.7,0.6,1.8,1.7
		c0,0.2,0,0.3,0,0.5c0,4.5,0,9,0,13.5c0,1.1-0.6,1.7-1.7,1.7c-0.9,0-1.9,0-2.8,0c-15.6,0-31.1,0-46.7,0c-1.1,0-2.2,0-3.3-0.1
		c-0.9,0-1.4-0.6-1.4-1.5c-0.1-0.9,0-1.9,0-2.8c0-23.8,0-47.6-0.1-71.4c0-4.2-0.2-4.2,3.9-4.2c15.9,0,31.7,0,47.6,0
		c0.9,0,1.9,0,2.8,0.1c0.9,0.1,1.4,0.7,1.4,1.6c0,4.8,0,9.6,0,14.5c0,0.7-0.4,1.2-1.1,1.2c-1.1,0.1-2.2,0.1-3.3,0.1
		c-8.9,0-17.7,0.1-26.6,0.1c-1.1,0-2.2,0-3.3,0c-1,0-1.4,0.7-1.4,1.5c0,2-0.1,4,0,6.1c0.1,2-0.9,4.4,0.7,5.8
		c1.3,1.2,3.6,0.4,5.4,0.4c7.2,0.1,14.3,0.1,21.5,0.1c0.9,0,1.9,0,2.8,0c2.6,0.1,2.7,0.1,2.7,2.6c0,3,0,5.9,0,8.9
		C864.8,326.1,864.8,327.5,864.8,329.1z"/>
	
		<linearGradient id="SVGID_00000031169568896675253320000000830629442613695115_" gradientUnits="userSpaceOnUse" x1="503.9563" y1="419.7688" x2="718.5849" y2="411.6184" gradientTransform="matrix(1 0 0 -1 0 629.3228)">
		<stop  offset="0" style="stop-color:#08D1FF"/>
		<stop  offset="1" style="stop-color:#8440F4"/>
	</linearGradient>
	<path style="fill:url(#SVGID_00000031169568896675253320000000830629442613695115_);" d="M671.4,176c9.9,0,19.9,0,29.8,0
		c0.9,0,1.9,0,2.8,0c1.1,0,1.7,0.6,1.7,1.8c0,3.6,0.1,7.2,0.1,10.7c0,5.5,0.6,5-4.9,5c-5.8-0.1-11.5,0-17.3,0c-1.5,0-1.9,0.4-1.9,2
		s0,3.1,0,4.7c0,17.1,0,34.2,0.1,51.3c0,1.2,0,2.5,0,3.7c0,1-0.6,1.4-1.5,1.4c-5.9,0-11.8,0.1-17.7,0.1c-1.1,0-1.7-0.5-1.7-1.7
		c0-2.2-0.1-4.4,0-6.5c0-16.5,0.1-33,0.2-49.4c0-1.1,0-2.2,0-3.3c-0.1-1.8-0.3-2.1-2.2-2.1c-5.8-0.1-11.5-0.1-17.3-0.1
		c-0.8,0-1.6,0-2.3,0c-1.9-0.1-2.2-0.4-2.3-2.1c0-0.6,0-1.2,0-1.9c0-3.7,0-7.5,0-11.2c0-2.1,0.2-2.3,2.5-2.3c0.9,0,1.9,0,2.8,0
		C651.9,176,661.6,176,671.4,176L671.4,176z"/>
	<path class="st1" d="M988.4,281.8c9.3,0,18.7,0,28,0c1.1,0,2.2,0,3.3,0.1c0.7,0.1,1.1,0.6,1.2,1.2c0.1,0.6,0.1,1.2,0.1,1.9
		c0,3.7,0.1,7.5,0,11.2c0,3.1,0,3.2-3,3.2c-5,0-9.9,0-14.9,0c-4.9,0-4.5-0.3-4.5,4.5c0,17.4,0.1,34.8,0,52.2c0,6.6,0.6,5.6-5.8,5.6
		c-4,0-8.1,0-12.1,0c-1.6,0-2-0.4-2-1.9c-0.1-2.2-0.1-4.4-0.1-6.5c0-16.5,0-33,0-49.4c0-4.8,0.4-4.6-4.5-4.6c-5.3,0-10.6,0-15.9,0
		c-1.5,0-1.9-0.4-1.9-2c0-4.5,0-9,0-13.5c0-1.6,0.4-2,1.9-2c2.5-0.1,5-0.1,7.5-0.1C973.3,281.7,980.9,281.7,988.4,281.8
		C988.4,281.8,988.4,281.8,988.4,281.8z"/>
	
		<linearGradient id="SVGID_00000083805417048041371370000001403367178362532779_" gradientUnits="userSpaceOnUse" x1="503.8558" y1="417.1237" x2="718.4844" y2="408.9732" gradientTransform="matrix(1 0 0 -1 0 629.3228)">
		<stop  offset="0" style="stop-color:#08D1FF"/>
		<stop  offset="1" style="stop-color:#8440F4"/>
	</linearGradient>
	<path style="fill:url(#SVGID_00000083805417048041371370000001403367178362532779_);" d="M604,215.9c0-12,0-24,0-36
		c0-0.8,0-1.6,0-2.3c0-1.1,0.5-1.7,1.6-1.7c3.1,0,6.2-0.1,9.3,0.1c3,0.2,6.2-0.6,9.1,0.7c0.8,2.9,0.4,5.9,0.4,8.8
		c0.1,22.3,0.1,44.5,0.1,66.8c0,0.9,0,1.9,0,2.8s-0.6,1.4-1.4,1.5c-5.9,0-11.8,0.1-17.7,0.1c-0.9,0-1.5-0.4-1.5-1.4
		c0-0.9,0-1.9,0-2.8c0-12.1,0-24.3,0-36.4C603.9,215.9,604,215.9,604,215.9z"/>
</g>
</svg>
