<svg id="Layer_1" data-name="Layer 1" xmlns="http://www.w3.org/2000/svg" viewBox="0 0 553.3 151.57"><defs><style>.cls-1{fill:#6331ff;}.cls-2{fill:#fff;}</style></defs><circle class="cls-1" cx="75.79" cy="75.79" r="75.79"/><path class="cls-2" d="M81,280.34c-.56.21-1.14.4-1.73.58s-1.21.33-1.84.47-1.09.3-1.58.47a4.56,4.56,0,0,1-1.58.26,3.65,3.65,0,0,1-2.2-1.1,3.4,3.4,0,0,1-1-2.15,3.67,3.67,0,0,1,.74-2.41,4.82,4.82,0,0,1,2-1.79q2.41-.93,4.73-1.94t4.73-1.94a1.77,1.77,0,0,0,1-.68,5,5,0,0,0,.53-1q1.26-4.42,2.52-8.68t2.63-8.67q.84-2.94,1.74-5.83t1.84-5.73a5.34,5.34,0,0,1,.94-1.84,2.83,2.83,0,0,1,1.79-1,3.17,3.17,0,0,1,3.31.84,3.47,3.47,0,0,1,.79,3.47c-.28,1-.56,1.93-.84,2.84s-.6,1.86-.95,2.84l-5,16.39a3.84,3.84,0,0,0-.27,1,5.12,5.12,0,0,1-.26,1.11,13,13,0,0,1,1.63-.69,8.22,8.22,0,0,0,1.52-.68c1.48-.91,3-1.8,4.47-2.68s3-1.8,4.36-2.79c1.61-1,3.16-2.11,4.63-3.2s2.94-2.23,4.41-3.42a27,27,0,0,0,4.21-4.57,17,17,0,0,0,2.62-5.62,10.28,10.28,0,0,0-1-7.89,9.45,9.45,0,0,0-5.78-4.52c-1-.35-2-.66-3-.94a15.59,15.59,0,0,0-3.1-.53,20.75,20.75,0,0,0-9.46,1.58,37.61,37.61,0,0,0-5.21,2.68,32.55,32.55,0,0,0-4.68,3.52q-3.36,2.94-6.46,6.1a23.4,23.4,0,0,0-4.89,7.35A14.42,14.42,0,0,0,76.5,252l-.63,2.52c-.14.57-.3,1.11-.47,1.63a2.89,2.89,0,0,1-.9,1.32,4.06,4.06,0,0,1-1.73.94,2.82,2.82,0,0,1-1.94-.31,3,3,0,0,1-2-3,14.84,14.84,0,0,1,.31-3,22.53,22.53,0,0,1,.84-3,30.28,30.28,0,0,1,3.63-7,49,49,0,0,1,5-6.1,70.89,70.89,0,0,1,8.05-7.1,42.53,42.53,0,0,1,9.3-5.3,33,33,0,0,1,7.46-2.05,20.15,20.15,0,0,1,7.78.36l3.31.84a20.18,20.18,0,0,1,3.1,1.06,16.4,16.4,0,0,1,5.42,3.46,18.15,18.15,0,0,1,3.57,4.89,17.11,17.11,0,0,1,1.63,5.84,17.51,17.51,0,0,1-.53,6.3,23.25,23.25,0,0,1-4.62,8.94,44.38,44.38,0,0,1-5.89,5.83q-3.15,2.58-6.62,4.89c-1.19.77-2.37,1.54-3.52,2.31s-2.4,1.58-3.73,2.42l.63.16a2,2,0,0,0,.42.05l2.78-.21c.88-.07,1.81-.11,2.79-.11.77,0,1.5,0,2.21.06s1.43.09,2.2.15c2.32.21,4.61.53,6.89.95a32.51,32.51,0,0,1,6.67,2,25.2,25.2,0,0,1,6.31,4,13.65,13.65,0,0,1,3.94,4.93,23.07,23.07,0,0,1,1.84,6,18.24,18.24,0,0,1-3.57,14.79,43.82,43.82,0,0,1-6,6.56,56.62,56.62,0,0,1-7.05,5.29,61.55,61.55,0,0,1-8.2,4.36,55.88,55.88,0,0,1-8.83,3,40.48,40.48,0,0,1-4,.84c-1.33.21-2.7.38-4.1.52s-2.82.25-4.26.32-2.85.07-4.25,0a41,41,0,0,1-8.57-.89A34.52,34.52,0,0,1,73,318.42a22.17,22.17,0,0,1-5-3.3,15,15,0,0,1-3.58-4.78,13.21,13.21,0,0,1-.73-10.17,17.31,17.31,0,0,1,4.52-7.29,31.29,31.29,0,0,1,7-5,4.52,4.52,0,0,1,1-.52,5.4,5.4,0,0,0,3.68-2.62A12,12,0,0,0,81,280.34h0Zm3.68,12.74c-.35,1.19-.7,2.35-1,3.47S83,298.83,82.6,300a3.65,3.65,0,0,1-2.31,2.47,3.19,3.19,0,0,1-3.16-.58,3.24,3.24,0,0,1-1.26-1.84,5.55,5.55,0,0,1,0-2.15l.42-1.26c.14-.43.32-.91.53-1.48a9.62,9.62,0,0,0-3.26,2.16,16,16,0,0,0-2.21,2.89,7.59,7.59,0,0,0-1.47,4.47A7.5,7.5,0,0,0,71.77,309a9,9,0,0,0,2.42,2.21A21.19,21.19,0,0,0,77,312.63a24.27,24.27,0,0,0,6.41,2,51.71,51.71,0,0,0,6.62.63,28.69,28.69,0,0,0,3.47,0c1.12-.07,2.28-.18,3.47-.31a42.69,42.69,0,0,0,5.94-.85q2.88-.63,5.73-1.47a34.85,34.85,0,0,0,6.09-2.47,51.14,51.14,0,0,0,5.68-3.41,40.38,40.38,0,0,0,9.57-8.52,12.89,12.89,0,0,0,3.2-7,14.47,14.47,0,0,0-1.42-7.57,8.32,8.32,0,0,0-3-3.73,20.94,20.94,0,0,0-4.31-2.16,24.31,24.31,0,0,0-5.83-1.57q-3-.42-6-.63a64.72,64.72,0,0,0-11.09.31,99.54,99.54,0,0,0-10.88,1.89,2,2,0,0,0-1.37.74" transform="translate(-25.87 -195.95)"/><path class="cls-2" d="M206.53,295.58V247.13h17q8.81,0,13.37,3.38t4.56,9.9a11,11,0,0,1-1.83,6.27,10.62,10.62,0,0,1-5.09,4,10.2,10.2,0,0,1,5.87,3.76,11.11,11.11,0,0,1,2.15,6.92q0,7-4.46,10.58t-12.71,3.66Zm10-28.15h7.38q7.56-.14,7.56-6,0-3.3-1.92-4.75t-6-1.44h-7Zm0,7.05v13.08h8.55a8.27,8.27,0,0,0,5.51-1.68,5.76,5.76,0,0,0,2-4.64q0-6.66-6.89-6.76Z" transform="translate(-25.87 -195.95)"/><path class="cls-2" d="M249.33,250.26a4.72,4.72,0,0,1,1.45-3.56,6.23,6.23,0,0,1,7.87,0,5.08,5.08,0,0,1,0,7.15,6.16,6.16,0,0,1-7.82,0A4.71,4.71,0,0,1,249.33,250.26Zm10.21,45.32h-9.65v-36h9.65Z" transform="translate(-25.87 -195.95)"/><path class="cls-2" d="M279,250.72v8.86h6.15v7.05H279v18a4.28,4.28,0,0,0,.76,2.86,3.84,3.84,0,0,0,2.93.87,14.87,14.87,0,0,0,2.83-.24v7.29a19.68,19.68,0,0,1-5.82.87q-10.12,0-10.32-10.22v-19.4H264.1v-7.05h5.26v-8.86Z" transform="translate(-25.87 -195.95)"/><path class="cls-1" d="M327.6,255.22H312.75v40.36h-10V255.22H288.13v-8.09H327.6Z" transform="translate(-25.87 -195.95)"/><path class="cls-1" d="M324.24,277.25a21.25,21.25,0,0,1,2.06-9.55,15,15,0,0,1,5.94-6.49,17.31,17.31,0,0,1,9-2.3,16.43,16.43,0,0,1,11.9,4.46q4.61,4.45,5.14,12.11l.07,2.46q0,8.3-4.63,13.3t-12.41,5q-7.79,0-12.43-5t-4.64-13.58Zm9.61.68c0,3.42.65,6,1.93,7.85a6.94,6.94,0,0,0,11,0q2-2.69,2-8.58,0-5-2-7.8a6.38,6.38,0,0,0-5.52-2.77,6.3,6.3,0,0,0-5.46,2.75C334.5,271.25,333.85,274.08,333.85,277.93Z" transform="translate(-25.87 -195.95)"/><path class="cls-1" d="M384.5,268.59a27.33,27.33,0,0,0-3.46-.26q-5.46,0-7.15,3.69v23.56h-9.62v-36h9.08l.27,4.29q2.89-5,8-5a10,10,0,0,1,3,.43Z" transform="translate(-25.87 -195.95)"/><path class="cls-1" d="M409.36,268.59a27.33,27.33,0,0,0-3.46-.26c-3.64,0-6,1.23-7.16,3.69v23.56h-9.61v-36h9.08l.27,4.29q2.89-5,8-5a10,10,0,0,1,3,.43Z" transform="translate(-25.87 -195.95)"/><path class="cls-1" d="M429.92,296.25q-7.92,0-12.89-4.86t-5-12.95v-.93a21.73,21.73,0,0,1,2.09-9.7,15.47,15.47,0,0,1,5.94-6.59,16.7,16.7,0,0,1,8.77-2.31q7.39,0,11.63,4.66t4.24,13.21v3.93H421.81a8.89,8.89,0,0,0,2.81,5.65,8.49,8.49,0,0,0,5.94,2.13,10.38,10.38,0,0,0,8.68-4l4.73,5.29a14.43,14.43,0,0,1-5.86,4.77A19.1,19.1,0,0,1,429.92,296.25Zm-1.09-29.59a6,6,0,0,0-4.65,1.94,10.08,10.08,0,0,0-2.27,5.55h13.37v-.77a7.12,7.12,0,0,0-1.73-5A6.19,6.19,0,0,0,428.83,266.66Z" transform="translate(-25.87 -195.95)"/><path class="cls-1" d="M459,259.58l.3,4.16a12.58,12.58,0,0,1,10.35-4.83q5.73,0,8.52,3.36t2.86,10.05v23.26h-9.61v-23a6.22,6.22,0,0,0-1.34-4.44c-.88-.92-2.36-1.38-4.42-1.38a6.6,6.6,0,0,0-6.09,3.46v25.39H450v-36Z" transform="translate(-25.87 -195.95)"/><path class="cls-1" d="M499.87,250.72v8.86H506v7.05h-6.16v18a4.27,4.27,0,0,0,.77,2.86,3.84,3.84,0,0,0,2.93.87,14.94,14.94,0,0,0,2.83-.24v7.29a19.74,19.74,0,0,1-5.83.87q-10.11,0-10.31-10.22v-19.4H485v-7.05h5.26v-8.86Z" transform="translate(-25.87 -195.95)"/><path class="cls-1" d="M528,296.25q-7.92,0-12.89-4.86t-5-12.95v-.93a21.74,21.74,0,0,1,2.1-9.7,15.34,15.34,0,0,1,5.94-6.59,16.67,16.67,0,0,1,8.77-2.31q7.38,0,11.63,4.66t4.24,13.21v3.93H519.84a8.93,8.93,0,0,0,2.81,5.65,8.52,8.52,0,0,0,5.94,2.13,10.4,10.4,0,0,0,8.69-4l4.72,5.29a14.4,14.4,0,0,1-5.85,4.77A19.13,19.13,0,0,1,528,296.25Zm-1.1-29.59a6,6,0,0,0-4.64,1.94,10,10,0,0,0-2.28,5.55h13.38v-.77a7.17,7.17,0,0,0-1.73-5A6.22,6.22,0,0,0,526.86,266.66Z" transform="translate(-25.87 -195.95)"/><path class="cls-1" d="M546.73,277.31q0-8.42,3.78-13.41a12.23,12.23,0,0,1,10.33-5,11,11,0,0,1,8.68,3.93V244.47h9.65v51.11h-8.68l-.47-3.83a11.3,11.3,0,0,1-9.25,4.5,12.22,12.22,0,0,1-10.2-5Q546.73,286.23,546.73,277.31Zm9.62.72c0,3.38.58,6,1.76,7.76a5.74,5.74,0,0,0,5.12,2.7,6.43,6.43,0,0,0,6.29-3.76V270.5a6.34,6.34,0,0,0-6.22-3.77Q556.34,266.73,556.35,278Z" transform="translate(-25.87 -195.95)"/></svg>